<mxfile host="Electron" modified="2023-06-12T21:46:09.358Z" agent="Mozilla/5.0 (Macintosh; Intel Mac OS X 10_15_7) AppleWebKit/537.36 (KHTML, like Gecko) draw.io/21.3.7 Chrome/112.0.5615.204 Electron/24.5.0 Safari/537.36" etag="ZL-YiAkM8_Z2432wSXAz" version="21.3.7" type="device">
  <diagram id="QDQtsup8xV9rW-LE-6dI" name="general">
    <mxGraphModel dx="1026" dy="663" grid="1" gridSize="10" guides="1" tooltips="1" connect="1" arrows="1" fold="1" page="1" pageScale="1" pageWidth="1169" pageHeight="827" math="0" shadow="0">
      <root>
        <mxCell id="0" />
        <mxCell id="1" parent="0" />
        <mxCell id="uX8QSjpsrgdaUb7Wwc_G-2" value="&lt;p style=&quot;margin: 4px 0px 0px; text-align: center; line-height: 120%;&quot;&gt;&lt;b&gt;Article&lt;/b&gt;&lt;/p&gt;&lt;hr size=&quot;1&quot;&gt;&amp;nbsp; body&lt;br&gt;&amp;nbsp; head" style="verticalAlign=top;align=left;overflow=fill;fontSize=12;fontFamily=Helvetica;html=1;whiteSpace=wrap;" parent="1" vertex="1">
          <mxGeometry x="360" y="160" width="140" height="70" as="geometry" />
        </mxCell>
        <mxCell id="vOfvLPe_9z4sZp0zCK8L-5" value="&lt;p style=&quot;margin: 4px 0px 0px; text-align: center; line-height: 120%;&quot;&gt;&lt;b&gt;Source&lt;/b&gt;&lt;/p&gt;&lt;hr size=&quot;1&quot;&gt;&amp;nbsp; articles" style="verticalAlign=top;align=left;overflow=fill;fontSize=12;fontFamily=Helvetica;html=1;whiteSpace=wrap;" parent="1" vertex="1">
          <mxGeometry x="70" y="310" width="140" height="50" as="geometry" />
        </mxCell>
        <mxCell id="vOfvLPe_9z4sZp0zCK8L-6" value="&lt;p style=&quot;margin: 4px 0px 0px; text-align: center; line-height: 120%;&quot;&gt;&lt;b&gt;Parser&lt;/b&gt;&lt;/p&gt;&lt;hr size=&quot;1&quot;&gt;&amp;nbsp; articles" style="verticalAlign=top;align=left;overflow=fill;fontSize=12;fontFamily=Helvetica;html=1;whiteSpace=wrap;" parent="1" vertex="1">
          <mxGeometry x="360" y="310" width="140" height="50" as="geometry" />
        </mxCell>
        <mxCell id="JyTG0Vk542nHduoPOhWL-1" value="" style="endArrow=none;shadow=0;strokeWidth=1;rounded=0;endFill=0;edgeStyle=elbowEdgeStyle;elbow=vertical;" parent="1" source="vOfvLPe_9z4sZp0zCK8L-5" target="vOfvLPe_9z4sZp0zCK8L-6" edge="1">
          <mxGeometry x="0.5" y="41" relative="1" as="geometry">
            <mxPoint x="555" y="390" as="sourcePoint" />
            <mxPoint x="555" y="270" as="targetPoint" />
            <mxPoint x="-40" y="32" as="offset" />
          </mxGeometry>
        </mxCell>
        <mxCell id="JyTG0Vk542nHduoPOhWL-2" value="1" style="resizable=0;align=left;verticalAlign=bottom;labelBackgroundColor=none;fontSize=12;" parent="JyTG0Vk542nHduoPOhWL-1" connectable="0" vertex="1">
          <mxGeometry x="-1" relative="1" as="geometry">
            <mxPoint x="7" y="-5" as="offset" />
          </mxGeometry>
        </mxCell>
        <mxCell id="JyTG0Vk542nHduoPOhWL-3" value="1" style="resizable=0;align=right;verticalAlign=bottom;labelBackgroundColor=none;fontSize=12;" parent="JyTG0Vk542nHduoPOhWL-1" connectable="0" vertex="1">
          <mxGeometry x="1" relative="1" as="geometry">
            <mxPoint x="-10" y="-5" as="offset" />
          </mxGeometry>
        </mxCell>
        <mxCell id="JyTG0Vk542nHduoPOhWL-4" value="Generates" style="text;html=1;resizable=0;points=[];;align=center;verticalAlign=middle;labelBackgroundColor=none;rounded=0;shadow=0;strokeWidth=1;fontSize=12;" parent="JyTG0Vk542nHduoPOhWL-1" vertex="1" connectable="0">
          <mxGeometry x="0.5" y="49" relative="1" as="geometry">
            <mxPoint x="144" y="-15" as="offset" />
          </mxGeometry>
        </mxCell>
        <mxCell id="JyTG0Vk542nHduoPOhWL-6" value="" style="endArrow=none;shadow=0;strokeWidth=1;rounded=0;endFill=0;edgeStyle=elbowEdgeStyle;elbow=vertical;" parent="1" source="uX8QSjpsrgdaUb7Wwc_G-2" target="vOfvLPe_9z4sZp0zCK8L-6" edge="1">
          <mxGeometry x="0.5" y="41" relative="1" as="geometry">
            <mxPoint x="450" y="450" as="sourcePoint" />
            <mxPoint x="450" y="370" as="targetPoint" />
            <mxPoint x="-40" y="32" as="offset" />
          </mxGeometry>
        </mxCell>
        <mxCell id="JyTG0Vk542nHduoPOhWL-7" value="0..*" style="resizable=0;align=left;verticalAlign=bottom;labelBackgroundColor=none;fontSize=12;" parent="JyTG0Vk542nHduoPOhWL-6" connectable="0" vertex="1">
          <mxGeometry x="-1" relative="1" as="geometry">
            <mxPoint x="9" y="20" as="offset" />
          </mxGeometry>
        </mxCell>
        <mxCell id="JyTG0Vk542nHduoPOhWL-8" value="1" style="resizable=0;align=right;verticalAlign=bottom;labelBackgroundColor=none;fontSize=12;" parent="JyTG0Vk542nHduoPOhWL-6" connectable="0" vertex="1">
          <mxGeometry x="1" relative="1" as="geometry">
            <mxPoint x="19" y="-5" as="offset" />
          </mxGeometry>
        </mxCell>
        <mxCell id="JyTG0Vk542nHduoPOhWL-9" value="Parsed-by&amp;nbsp;⏵" style="text;html=1;resizable=0;points=[];;align=center;verticalAlign=middle;labelBackgroundColor=none;rounded=0;shadow=0;strokeWidth=1;fontSize=12;" parent="JyTG0Vk542nHduoPOhWL-6" vertex="1" connectable="0">
          <mxGeometry x="0.5" y="49" relative="1" as="geometry">
            <mxPoint x="-194" y="31" as="offset" />
          </mxGeometry>
        </mxCell>
        <mxCell id="JyTG0Vk542nHduoPOhWL-10" value="&lt;p style=&quot;margin: 4px 0px 0px; text-align: center; line-height: 140%;&quot;&gt;&lt;b&gt;Serializer&lt;/b&gt;&lt;/p&gt;&lt;hr size=&quot;1&quot;&gt;&amp;nbsp;&amp;nbsp;" style="verticalAlign=top;align=left;overflow=fill;fontSize=12;fontFamily=Helvetica;html=1;whiteSpace=wrap;" parent="1" vertex="1">
          <mxGeometry x="70" y="167.5" width="140" height="55" as="geometry" />
        </mxCell>
        <mxCell id="JyTG0Vk542nHduoPOhWL-11" value="" style="endArrow=none;shadow=0;strokeWidth=1;rounded=0;endFill=0;edgeStyle=elbowEdgeStyle;elbow=vertical;" parent="1" source="JyTG0Vk542nHduoPOhWL-10" target="uX8QSjpsrgdaUb7Wwc_G-2" edge="1">
          <mxGeometry x="0.5" y="41" relative="1" as="geometry">
            <mxPoint x="160" y="270.17" as="sourcePoint" />
            <mxPoint x="320" y="270.17" as="targetPoint" />
            <mxPoint x="-40" y="32" as="offset" />
          </mxGeometry>
        </mxCell>
        <mxCell id="JyTG0Vk542nHduoPOhWL-12" value="1" style="resizable=0;align=left;verticalAlign=bottom;labelBackgroundColor=none;fontSize=12;" parent="JyTG0Vk542nHduoPOhWL-11" connectable="0" vertex="1">
          <mxGeometry x="-1" relative="1" as="geometry">
            <mxPoint x="4" y="-5" as="offset" />
          </mxGeometry>
        </mxCell>
        <mxCell id="JyTG0Vk542nHduoPOhWL-13" value="1..*" style="resizable=0;align=right;verticalAlign=bottom;labelBackgroundColor=none;fontSize=12;" parent="JyTG0Vk542nHduoPOhWL-11" connectable="0" vertex="1">
          <mxGeometry x="1" relative="1" as="geometry">
            <mxPoint x="-5" y="-5" as="offset" />
          </mxGeometry>
        </mxCell>
        <mxCell id="JyTG0Vk542nHduoPOhWL-14" value="⏴ Stored-by" style="text;html=1;resizable=0;points=[];;align=center;verticalAlign=middle;labelBackgroundColor=none;rounded=0;shadow=0;strokeWidth=1;fontSize=12;" parent="JyTG0Vk542nHduoPOhWL-11" vertex="1" connectable="0">
          <mxGeometry x="0.5" y="49" relative="1" as="geometry">
            <mxPoint x="-41" y="34" as="offset" />
          </mxGeometry>
        </mxCell>
        <mxCell id="jw_p9V4v3y0gaCmtlhVT-1" value="&lt;p style=&quot;margin: 4px 0px 0px; text-align: center; line-height: 140%;&quot;&gt;&lt;b&gt;Deserializer&lt;/b&gt;&lt;/p&gt;&lt;hr size=&quot;1&quot;&gt;&amp;nbsp;&amp;nbsp;" style="verticalAlign=top;align=left;overflow=fill;fontSize=12;fontFamily=Helvetica;html=1;whiteSpace=wrap;" parent="1" vertex="1">
          <mxGeometry x="360" y="30" width="140" height="55" as="geometry" />
        </mxCell>
        <mxCell id="jw_p9V4v3y0gaCmtlhVT-2" value="" style="endArrow=none;shadow=0;strokeWidth=1;rounded=0;endFill=0;edgeStyle=elbowEdgeStyle;elbow=vertical;" parent="1" source="uX8QSjpsrgdaUb7Wwc_G-2" target="jw_p9V4v3y0gaCmtlhVT-1" edge="1">
          <mxGeometry x="0.5" y="41" relative="1" as="geometry">
            <mxPoint x="530" y="300" as="sourcePoint" />
            <mxPoint x="530" y="220" as="targetPoint" />
            <mxPoint x="-40" y="32" as="offset" />
          </mxGeometry>
        </mxCell>
        <mxCell id="jw_p9V4v3y0gaCmtlhVT-3" value="1..*" style="resizable=0;align=left;verticalAlign=bottom;labelBackgroundColor=none;fontSize=12;" parent="jw_p9V4v3y0gaCmtlhVT-2" connectable="0" vertex="1">
          <mxGeometry x="-1" relative="1" as="geometry">
            <mxPoint x="10" as="offset" />
          </mxGeometry>
        </mxCell>
        <mxCell id="jw_p9V4v3y0gaCmtlhVT-4" value="1" style="resizable=0;align=right;verticalAlign=bottom;labelBackgroundColor=none;fontSize=12;" parent="jw_p9V4v3y0gaCmtlhVT-2" connectable="0" vertex="1">
          <mxGeometry x="1" relative="1" as="geometry">
            <mxPoint x="20" y="20" as="offset" />
          </mxGeometry>
        </mxCell>
        <mxCell id="jw_p9V4v3y0gaCmtlhVT-5" value="Recovered-by" style="text;html=1;resizable=0;points=[];;align=center;verticalAlign=middle;labelBackgroundColor=none;rounded=0;shadow=0;strokeWidth=1;fontSize=12;" parent="jw_p9V4v3y0gaCmtlhVT-2" vertex="1" connectable="0">
          <mxGeometry x="0.5" y="49" relative="1" as="geometry">
            <mxPoint x="94" y="20" as="offset" />
          </mxGeometry>
        </mxCell>
        <mxCell id="frmbL3GdQpa1qKEnczU--1" value="&lt;p style=&quot;margin: 4px 0px 0px; text-align: center; line-height: 140%;&quot;&gt;&lt;b&gt;Storage&lt;/b&gt;&lt;/p&gt;&lt;hr size=&quot;1&quot;&gt;&amp;nbsp; tokens" style="verticalAlign=top;align=left;overflow=fill;fontSize=12;fontFamily=Helvetica;html=1;whiteSpace=wrap;" parent="1" vertex="1">
          <mxGeometry x="650" y="290" width="140" height="55" as="geometry" />
        </mxCell>
        <mxCell id="frmbL3GdQpa1qKEnczU--2" value="" style="endArrow=none;shadow=0;strokeWidth=1;rounded=0;endFill=0;edgeStyle=elbowEdgeStyle;elbow=vertical;" parent="1" source="frmbL3GdQpa1qKEnczU--6" target="frmbL3GdQpa1qKEnczU--1" edge="1">
          <mxGeometry x="0.5" y="41" relative="1" as="geometry">
            <mxPoint x="690" y="230" as="sourcePoint" />
            <mxPoint x="640" y="195" as="targetPoint" />
            <mxPoint x="-40" y="32" as="offset" />
          </mxGeometry>
        </mxCell>
        <mxCell id="frmbL3GdQpa1qKEnczU--3" value="1" style="resizable=0;align=left;verticalAlign=bottom;labelBackgroundColor=none;fontSize=12;" parent="frmbL3GdQpa1qKEnczU--2" connectable="0" vertex="1">
          <mxGeometry x="-1" relative="1" as="geometry">
            <mxPoint x="10" y="20" as="offset" />
          </mxGeometry>
        </mxCell>
        <mxCell id="frmbL3GdQpa1qKEnczU--4" value="1..*" style="resizable=0;align=right;verticalAlign=bottom;labelBackgroundColor=none;fontSize=12;" parent="frmbL3GdQpa1qKEnczU--2" connectable="0" vertex="1">
          <mxGeometry x="1" relative="1" as="geometry">
            <mxPoint x="30" as="offset" />
          </mxGeometry>
        </mxCell>
        <mxCell id="frmbL3GdQpa1qKEnczU--5" value="Organized-in" style="text;html=1;resizable=0;points=[];;align=center;verticalAlign=middle;labelBackgroundColor=none;rounded=0;shadow=0;strokeWidth=1;fontSize=12;" parent="frmbL3GdQpa1qKEnczU--2" vertex="1" connectable="0">
          <mxGeometry x="0.5" y="49" relative="1" as="geometry">
            <mxPoint x="-9" y="-18" as="offset" />
          </mxGeometry>
        </mxCell>
        <mxCell id="frmbL3GdQpa1qKEnczU--6" value="&lt;p style=&quot;margin: 4px 0px 0px; text-align: center; line-height: 120%;&quot;&gt;&lt;b&gt;Tokenizer&lt;/b&gt;&lt;/p&gt;&lt;hr size=&quot;1&quot;&gt;&amp;nbsp;&amp;nbsp;" style="verticalAlign=top;align=left;overflow=fill;fontSize=12;fontFamily=Helvetica;html=1;whiteSpace=wrap;" parent="1" vertex="1">
          <mxGeometry x="650" y="170" width="140" height="50" as="geometry" />
        </mxCell>
        <mxCell id="frmbL3GdQpa1qKEnczU--7" value="" style="endArrow=none;shadow=0;strokeWidth=1;rounded=0;endFill=0;edgeStyle=elbowEdgeStyle;elbow=vertical;" parent="1" source="uX8QSjpsrgdaUb7Wwc_G-2" target="frmbL3GdQpa1qKEnczU--6" edge="1">
          <mxGeometry x="0.5" y="41" relative="1" as="geometry">
            <mxPoint x="500" y="195" as="sourcePoint" />
            <mxPoint x="630" y="210" as="targetPoint" />
            <mxPoint x="-40" y="32" as="offset" />
          </mxGeometry>
        </mxCell>
        <mxCell id="frmbL3GdQpa1qKEnczU--8" value="1" style="resizable=0;align=left;verticalAlign=bottom;labelBackgroundColor=none;fontSize=12;" parent="frmbL3GdQpa1qKEnczU--7" connectable="0" vertex="1">
          <mxGeometry x="-1" relative="1" as="geometry">
            <mxPoint x="9" y="-5" as="offset" />
          </mxGeometry>
        </mxCell>
        <mxCell id="frmbL3GdQpa1qKEnczU--9" value="1" style="resizable=0;align=right;verticalAlign=bottom;labelBackgroundColor=none;fontSize=12;" parent="frmbL3GdQpa1qKEnczU--7" connectable="0" vertex="1">
          <mxGeometry x="1" relative="1" as="geometry">
            <mxPoint x="-10" y="-5" as="offset" />
          </mxGeometry>
        </mxCell>
        <mxCell id="frmbL3GdQpa1qKEnczU--10" value="Processed-by&amp;nbsp;⏵" style="text;html=1;resizable=0;points=[];;align=center;verticalAlign=middle;labelBackgroundColor=none;rounded=0;shadow=0;strokeWidth=1;fontSize=12;" parent="frmbL3GdQpa1qKEnczU--7" vertex="1" connectable="0">
          <mxGeometry x="0.5" y="49" relative="1" as="geometry">
            <mxPoint x="-38" y="34" as="offset" />
          </mxGeometry>
        </mxCell>
      </root>
    </mxGraphModel>
  </diagram>
</mxfile>
